<svg width="20" height="21" viewBox="0 0 20 21" fill="none" xmlns="http://www.w3.org/2000/svg">
<path d="M7.7977 0.86681C8.12808 0.569971 8.55655 0.405762 9.0007 0.405762C9.44485 0.405762 9.87331 0.569971 10.2037 0.86681L16.8037 6.79601C16.9915 6.9649 17.1417 7.17142 17.2444 7.40214C17.3472 7.63287 17.4002 7.88264 17.4001 8.13521V9.28001C17.0292 9.06527 16.6228 8.91894 16.2001 8.84801V8.13401C16.2001 8.04979 16.1823 7.96651 16.148 7.8896C16.1137 7.81269 16.0636 7.74387 16.0009 7.68761L9.4009 1.75721C9.29079 1.65838 9.14805 1.60371 9.0001 1.60371C8.85214 1.60371 8.7094 1.65838 8.5993 1.75721L1.9993 7.68761C1.93647 7.744 1.88626 7.81302 1.85193 7.89015C1.81761 7.96728 1.79994 8.05079 1.8001 8.13521V16.6C1.8001 16.7591 1.86331 16.9118 1.97583 17.0243C2.08836 17.1368 2.24097 17.2 2.4001 17.2H5.4001C5.55923 17.2 5.71184 17.1368 5.82436 17.0243C5.93688 16.9118 6.0001 16.7591 6.0001 16.6V12.4C6.0001 11.9226 6.18974 11.4648 6.52731 11.1272C6.86487 10.7897 7.32271 10.6 7.8001 10.6H10.2001C10.6775 10.6 11.1353 10.7897 11.4729 11.1272C11.8105 11.4648 12.0001 11.9226 12.0001 12.4V15.0496C11.5249 15.2578 11.1116 15.5852 10.8001 16V12.4C10.8001 12.2409 10.7369 12.0883 10.6244 11.9757C10.5118 11.8632 10.3592 11.8 10.2001 11.8H7.8001C7.64097 11.8 7.48836 11.8632 7.37583 11.9757C7.26331 12.0883 7.2001 12.2409 7.2001 12.4V16.6C7.2001 17.0774 7.01046 17.5352 6.67289 17.8728C6.33532 18.2104 5.87749 18.4 5.4001 18.4H2.4001C1.92271 18.4 1.46487 18.2104 1.12731 17.8728C0.78974 17.5352 0.600098 17.0774 0.600098 16.6V8.13521C0.600098 7.62401 0.816098 7.13801 1.1977 6.79601L7.7977 0.86681V0.86681ZM18.0001 12.4C18.0001 13.0365 17.7472 13.647 17.2972 14.0971C16.8471 14.5472 16.2366 14.8 15.6001 14.8C14.9636 14.8 14.3531 14.5472 13.903 14.0971C13.453 13.647 13.2001 13.0365 13.2001 12.4C13.2001 11.7635 13.453 11.153 13.903 10.703C14.3531 10.2529 14.9636 10 15.6001 10C16.2366 10 16.8471 10.2529 17.2972 10.703C17.7472 11.153 18.0001 11.7635 18.0001 12.4ZM19.8001 17.8C19.8001 19.294 18.6001 20.8 15.6001 20.8C12.6001 20.8 11.4001 19.3 11.4001 17.8C11.4001 17.3226 11.5897 16.8648 11.9273 16.5272C12.2649 16.1897 12.7227 16 13.2001 16H18.0001C18.4775 16 18.9353 16.1897 19.2729 16.5272C19.6105 16.8648 19.8001 17.3226 19.8001 17.8Z" fill="#CCB29E"/>
</svg>
