<svg width="24" height="24" viewBox="0 0 24 24" fill="none" xmlns="http://www.w3.org/2000/svg">
<path d="M10.7977 2.86681C11.1281 2.56997 11.5565 2.40576 12.0007 2.40576C12.4448 2.40576 12.8733 2.56997 13.2037 2.86681L19.8037 8.79601C19.9915 8.9649 20.1417 9.17142 20.2444 9.40214C20.3472 9.63287 20.4002 9.88264 20.4001 10.1352V11.28C19.9421 11.0157 19.4316 10.8554 18.9047 10.8107C18.3779 10.7659 17.8476 10.8377 17.3517 11.021C16.8557 11.2043 16.4061 11.4945 16.035 11.8711C15.6638 12.2477 15.3801 12.7014 15.2041 13.2H10.2001C10.041 13.2 9.88836 13.2632 9.77583 13.3757C9.66331 13.4883 9.6001 13.6409 9.6001 13.8V18.6C9.6001 19.0774 9.41046 19.5352 9.07289 19.8728C8.73532 20.2104 8.27749 20.4 7.8001 20.4H5.4001C4.92271 20.4 4.46487 20.2104 4.12731 19.8728C3.78974 19.5352 3.6001 19.0774 3.6001 18.6V10.1352C3.6001 9.62401 3.8161 9.13801 4.1977 8.79601L10.7977 2.86681V2.86681ZM21.0001 14.4C21.0001 15.0365 20.7472 15.647 20.2972 16.0971C19.8471 16.5472 19.2366 16.8 18.6001 16.8C17.9636 16.8 17.3531 16.5472 16.903 16.0971C16.453 15.647 16.2001 15.0365 16.2001 14.4C16.2001 13.7635 16.453 13.153 16.903 12.703C17.3531 12.2529 17.9636 12 18.6001 12C19.2366 12 19.8471 12.2529 20.2972 12.703C20.7472 13.153 21.0001 13.7635 21.0001 14.4ZM22.8001 19.8C22.8001 21.294 21.6001 22.8 18.6001 22.8C15.6001 22.8 14.4001 21.3 14.4001 19.8C14.4001 19.3226 14.5897 18.8648 14.9273 18.5272C15.2649 18.1897 15.7227 18 16.2001 18H21.0001C21.4775 18 21.9353 18.1897 22.2729 18.5272C22.6105 18.8648 22.8001 19.3226 22.8001 19.8Z" fill="#1C0A00"/>
</svg>
