<svg width="28" height="28" viewBox="0 0 28 28" fill="none" xmlns="http://www.w3.org/2000/svg">
<path d="M14.004 2.5C20.355 2.5 25.504 7.649 25.504 14C25.504 20.351 20.355 25.5 14.004 25.5C12.083 25.5 10.229 25.028 8.57403 24.14L4.07003 25.493C3.85381 25.5578 3.62408 25.5628 3.40523 25.5076C3.18638 25.4523 2.98657 25.3389 2.82701 25.1792C2.66746 25.0196 2.55411 24.8197 2.49901 24.6008C2.4439 24.3819 2.44909 24.1522 2.51403 23.936L3.86703 19.433C2.96994 17.7628 2.50159 15.8959 2.50403 14C2.50403 7.649 7.65303 2.5 14.004 2.5ZM14.004 4C8.48103 4 4.00403 8.477 4.00403 14C4.00403 15.77 4.46403 17.472 5.32603 18.973L5.48603 19.253L4.08303 23.923L8.75503 22.52L9.03503 22.68C10.535 23.54 12.235 24 14.004 24C19.527 24 24.004 19.523 24.004 14C24.004 8.477 19.527 4 14.004 4V4ZM10.254 15.5H14.752C14.9421 15.5001 15.125 15.5722 15.2638 15.702C15.4027 15.8317 15.4871 16.0093 15.5001 16.1989C15.513 16.3885 15.4535 16.5759 15.3336 16.7233C15.2137 16.8707 15.0423 16.9671 14.854 16.993L14.752 17H10.254C10.064 16.9999 9.88109 16.9278 9.74224 16.798C9.60339 16.6683 9.51895 16.4907 9.506 16.3011C9.49305 16.1115 9.55254 15.9241 9.67246 15.7767C9.79238 15.6293 9.96378 15.5329 10.152 15.507L10.254 15.5H14.752H10.254V15.5ZM10.254 11H17.758C17.9481 11.0001 18.131 11.0722 18.2698 11.202C18.4087 11.3317 18.4931 11.5093 18.5061 11.6989C18.519 11.8885 18.4595 12.0759 18.3396 12.2233C18.2197 12.3707 18.0483 12.4671 17.86 12.493L17.758 12.5H10.254C10.064 12.4999 9.88109 12.4278 9.74224 12.298C9.60339 12.1683 9.51895 11.9907 9.506 11.8011C9.49305 11.6115 9.55254 11.4241 9.67246 11.2767C9.79238 11.1293 9.96378 11.0329 10.152 11.007L10.254 11H17.758H10.254Z" fill="#CCB29E"/>
</svg>
