<svg width="28" height="28" viewBox="0 0 28 28" fill="none" xmlns="http://www.w3.org/2000/svg">
<path d="M14.0009 2.5C20.3529 2.5 25.5009 7.649 25.5009 14C25.5009 20.351 20.3529 25.5 14.0009 25.5C12.0509 25.5 10.1709 25.013 8.50094 24.102L3.77694 25.462C3.60517 25.5116 3.42327 25.5142 3.25015 25.4695C3.07704 25.4249 2.91906 25.3347 2.79265 25.2083C2.66624 25.0819 2.57603 24.9239 2.53141 24.7508C2.48679 24.5777 2.48939 24.3958 2.53894 24.224L3.90094 19.503C2.9797 17.8153 2.49823 15.9228 2.50094 14C2.50094 7.649 7.65094 2.5 14.0009 2.5ZM14.7499 15.5H10.2499L10.1489 15.507C9.96943 15.5317 9.80493 15.6206 9.68585 15.7571C9.56677 15.8937 9.50117 16.0688 9.50117 16.25C9.50117 16.4312 9.56677 16.6063 9.68585 16.7429C9.80493 16.8794 9.96943 16.9683 10.1489 16.993L10.2499 17H14.7489L14.8499 16.993C15.0295 16.9683 15.194 16.8794 15.313 16.7429C15.4321 16.6063 15.4977 16.4312 15.4977 16.25C15.4977 16.0688 15.4321 15.8937 15.313 15.7571C15.194 15.6206 15.0295 15.5317 14.8499 15.507L14.7489 15.5H14.7499ZM17.7559 11H10.2499L10.1489 11.007C9.96943 11.0317 9.80493 11.1206 9.68585 11.2571C9.56677 11.3937 9.50117 11.5688 9.50117 11.75C9.50117 11.9312 9.56677 12.1063 9.68585 12.2429C9.80493 12.3794 9.96943 12.4683 10.1489 12.493L10.2499 12.5H17.7549L17.8569 12.493C18.0365 12.4683 18.201 12.3794 18.32 12.2429C18.4391 12.1063 18.5047 11.9312 18.5047 11.75C18.5047 11.5688 18.4391 11.3937 18.32 11.2571C18.201 11.1206 18.0365 11.0317 17.8569 11.007L17.7559 11Z" fill="#1C0A00"/>
</svg>
