<svg width="20" height="24" viewBox="0 0 20 24" fill="none" xmlns="http://www.w3.org/2000/svg">
<path d="M12 0C8.334 0 5.554 0.862 3.687 2.625C1.822 4.388 1 6.958 1 10V10.906C0.428 11.45 0 12.15 0 13C0 14.26 0.89 15.154 2 15.594C2.37 16.761 2.773 17.987 3.22 19.031C3.705 20.173 4.144 21.079 4.75 21.721C5.42273 22.4395 6.2358 23.0123 7.13884 23.4039C8.04189 23.7954 9.01571 23.9975 10 23.9975C10.9843 23.9975 11.9581 23.7954 12.8612 23.4039C13.7642 23.0123 14.5773 22.4395 15.25 21.721C15.856 21.079 16.263 20.173 16.75 19.031C17.196 17.987 17.63 16.761 18 15.595C19.11 15.155 20 14.261 20 13.001C20 12.155 19.57 11.454 19 10.907V10C19 7.176 18.357 5.166 17.22 3.844C16.254 2.724 14.965 2.264 13.688 2.124L12.906 0.564L12.626 0H12ZM11.406 2.063L12.094 3.438C12.427 4.104 12.557 4.578 12.562 4.781C12.568 4.985 12.575 4.901 12.532 4.939C12.445 5.012 11.602 5.229 10.562 5.282C9.522 5.336 8.298 5.31 7.156 5.752C6.016 6.194 5.013 7.379 5 9.002H7C7.008 8.016 7.237 7.874 7.875 7.627C8.513 7.38 9.613 7.307 10.688 7.252C11.762 7.197 12.871 7.262 13.813 6.472C14.283 6.075 14.583 5.392 14.563 4.722C14.558 4.574 14.523 4.432 14.5 4.282C14.9583 4.47839 15.3649 4.77822 15.688 5.158C16.413 6 17 7.482 17 10V11.844L17.5 12.124C17.804 12.301 18 12.62 18 13C18.0058 13.251 17.9151 13.4947 17.7465 13.6808C17.5779 13.8668 17.3444 13.9811 17.094 14L16.406 14.03L16.219 14.687C15.8509 15.885 15.423 17.0638 14.937 18.219C14.487 19.275 13.97 20.175 13.812 20.343C11.682 22.593 8.315 22.593 6.187 20.343C6.027 20.175 5.512 19.275 5.061 18.218C4.57615 17.0626 4.14896 15.8838 3.781 14.686L3.593 14.029L2.905 13.999C2.65498 13.9799 2.42181 13.8656 2.25346 13.6798C2.08512 13.494 1.99441 13.2507 2 13C2 12.626 2.193 12.302 2.5 12.125L3 11.845V10C3 7.303 3.684 5.364 5.063 4.062C6.343 2.852 8.433 2.162 11.406 2.062V2.063ZM7 12C6.73478 12 6.48043 12.1054 6.29289 12.2929C6.10536 12.4804 6 12.7348 6 13C6 13.2652 6.10536 13.5196 6.29289 13.7071C6.48043 13.8946 6.73478 14 7 14C7.26522 14 7.51957 13.8946 7.70711 13.7071C7.89464 13.5196 8 13.2652 8 13C8 12.7348 7.89464 12.4804 7.70711 12.2929C7.51957 12.1054 7.26522 12 7 12ZM13 12C12.7348 12 12.4804 12.1054 12.2929 12.2929C12.1054 12.4804 12 12.7348 12 13C12 13.2652 12.1054 13.5196 12.2929 13.7071C12.4804 13.8946 12.7348 14 13 14C13.2652 14 13.5196 13.8946 13.7071 13.7071C13.8946 13.5196 14 13.2652 14 13C14 12.7348 13.8946 12.4804 13.7071 12.2929C13.5196 12.1054 13.2652 12 13 12Z" fill="#CCB29E"/>
</svg>
